<?xml version="1.0" encoding="utf-8"?>
<svg xmlns="http://www.w3.org/2000/svg" style="margin: auto; background: none; display: block; shape-rendering: auto;" width="280" height="102" preserveAspectRatio="xMidYMid">
<style type="text/css">
  text {
    text-anchor: middle; font-size: 39px; opacity: 0;
  }
</style>
<g style="transform-origin:140px 51px;transform:scale(1)">
<g transform="translate(140,51)">
  <g transform="translate(0,0)"><g class="path" style="transform: scale(0.91); transform-origin: -84.2px -2.84508px; animation: 1s linear -0.605s infinite normal forwards running breath-62c94768-18e4-4b9d-8854-5cac7e1d357f;"><path d="M17.39 0L3.12 0L3.59-9.48L3.12-26.91L17.75-26.91L17.32-22.74L8.54-22.74L8.31-15.83L16.11-15.83L15.68-11.70L8.15-11.70L8.11-10.14L8.38-4.13L17.82-4.13L17.39 0" fill="#ffffff" stroke="none" stroke-width="none" transform="translate(-94.67001342773438,10.609916280110674)" style="fill: rgb(255, 255, 255);"></path></g><g class="path" style="transform: scale(0.91); transform-origin: -66.2px 0.859917px; animation: 1s linear -0.55s infinite normal forwards running breath-62c94768-18e4-4b9d-8854-5cac7e1d357f;"><path d="M37.28-2.57L32.95 0.39L28.31-6.51L23.52 0.39L19.66-1.75L25.78-9.67L19.97-16.85L24.30-19.81L28.55-13.22L33.15-19.89L36.93-17.55L31.12-9.98L37.28-2.57" fill="#ffffff" stroke="none" stroke-width="none" transform="translate(-94.67001342773438,10.609916280110674)" style="fill: rgb(255, 255, 255);"></path></g><g class="path" style="transform: scale(0.91); transform-origin: -46.775px 4.83992px; animation: 1s linear -0.495s infinite normal forwards running breath-62c94768-18e4-4b9d-8854-5cac7e1d357f;"><path d="M50.31-19.70L50.31-19.70L50.31-19.70Q52.81-19.70 54.50-17.51L54.50-17.51L54.50-17.51Q56.20-15.33 56.20-11.62L56.20-11.62L56.20-11.62Q56.20-6.43 53.53-3.22L53.53-3.22L53.53-3.22Q50.86 0 46.88 0L46.88 0L46.88 0Q46.06 0 45.05-0.12L45.05-0.12L45.24 7.33L39.90 8.31L40.40-9.48L40.44-9.48L40.44-9.48Q40.29-14.70 39.59-18.84L39.59-18.84L44.30-19.85L44.30-19.85Q44.54-17.78 44.69-15.76L44.69-15.76L44.69-15.76Q44.77-15.95 45.49-16.83L45.49-16.83L45.49-16.83Q46.21-17.71 47.62-18.70L47.62-18.70L47.62-18.70Q49.02-19.70 50.31-19.70zM48.79-14.63L48.79-14.63L48.79-14.63Q46.72-14.63 44.77-13.49L44.77-13.49L44.77-10.14L44.93-4.56L44.93-4.56Q47.03-4.21 48.13-4.21L48.13-4.21L48.13-4.21Q51.87-4.21 51.87-9.42L51.87-9.42L51.87-9.42Q51.87-14.63 48.79-14.63" fill="#ffffff" stroke="none" stroke-width="none" transform="translate(-94.67001342773438,10.609916280110674)" style="fill: rgb(255, 255, 255);"></path></g><g class="path" style="transform: scale(0.91); transform-origin: -28.855px 0.779917px; animation: 1s linear -0.44s infinite normal forwards running breath-62c94768-18e4-4b9d-8854-5cac7e1d357f;"><path d="M66.46-3.98L66.46-3.98L66.46-3.98Q67.59-3.98 68.83-4.56L68.83-4.56L68.83-4.56Q70.08-5.15 70.78-5.73L70.78-5.73L71.49-6.32L73.28-4.13L73.28-4.13Q72.89-3.47 72.07-2.61L72.07-2.61L72.07-2.61Q71.25-1.75 70.41-1.15L70.41-1.15L70.41-1.15Q69.58-0.55 68.19-0.06L68.19-0.06L68.19-0.06Q66.81 0.43 65.33 0.43L65.33 0.43L65.33 0.43Q62.17 0.43 60.18-1.97L60.18-1.97L60.18-1.97Q58.19-4.37 58.19-8.15L58.19-8.15L58.19-8.15Q58.19-12.91 60.96-16.50L60.96-16.50L60.96-16.50Q63.73-20.09 67.43-20.09L67.43-20.09L67.43-20.09Q70.28-20.09 71.86-18.49L71.86-18.49L71.86-18.49Q73.44-16.89 73.44-14.00L73.44-14.00L73.44-14.00Q73.44-12.29 72.85-10.10L72.85-10.10L72.07-9.28L62.32-8.38L62.32-8.38Q62.98-3.98 66.46-3.98zM66.46-16.07L66.46-16.07L66.46-16.07Q64.74-16.07 63.57-14.68L63.57-14.68L63.57-14.68Q62.40-13.30 62.20-11.15L62.20-11.15L68.83-11.97L68.83-11.97Q68.95-12.87 68.95-13.46L68.95-13.46L68.95-13.46Q68.95-16.07 66.46-16.07" fill="#ffffff" stroke="none" stroke-width="none" transform="translate(-94.67001342773438,10.609916280110674)" style="fill: rgb(255, 255, 255);"></path></g><g class="path" style="transform: scale(0.91); transform-origin: -10px 0.784917px; animation: 1s linear -0.385s infinite normal forwards running breath-62c94768-18e4-4b9d-8854-5cac7e1d357f;"><path d="M88.14-9.87L88.14-9.87Q88.14-12.56 87.67-13.46L87.67-13.46L87.67-13.46Q87.20-14.35 85.49-14.35L85.49-14.35L85.49-14.35Q83.77-14.35 81.59-12.99L81.59-12.99L81.59-10.14L82.02-0.97L76.79 0L77.26-9.48L77.26-9.48Q77.10-14.70 76.40-18.84L76.40-18.84L81.12-19.85L81.12-19.85Q81.39-17.59 81.51-15.44L81.51-15.44L81.51-15.44Q82.09-16.22 82.84-16.98L82.84-16.98L82.84-16.98Q83.58-17.75 85.18-18.70L85.18-18.70L85.18-18.70Q86.78-19.66 88.55-19.66L88.55-19.66L88.55-19.66Q90.32-19.66 91.53-18.27L91.53-18.27L91.53-18.27Q92.74-16.89 92.74-14.51L92.74-14.51L92.51-10.14L92.94-0.78L87.67 0.20L88.14-9.87" fill="#ffffff" stroke="none" stroke-width="none" transform="translate(-94.67001342773438,10.609916280110674)" style="fill: rgb(255, 255, 255);"></path></g><g class="path" style="transform: scale(0.91); transform-origin: 7.70499px 0.779917px; animation: 1s linear -0.33s infinite normal forwards running breath-62c94768-18e4-4b9d-8854-5cac7e1d357f;"><path d="M103.12-3.63L103.12-3.63L103.12-3.63Q105.14-3.63 105.14-5.42L105.14-5.42L105.14-5.42Q105.14-6.04 104.27-6.59L104.27-6.59L104.27-6.59Q103.39-7.14 102.12-7.68L102.12-7.68L102.12-7.68Q100.85-8.23 99.59-8.91L99.59-8.91L99.59-8.91Q98.32-9.59 97.44-10.80L97.44-10.80L97.44-10.80Q96.56-12.01 96.56-13.57L96.56-13.57L96.56-13.57Q96.56-16.18 98.87-18.14L98.87-18.14L98.87-18.14Q101.17-20.09 104.17-20.09L104.17-20.09L104.17-20.09Q105.57-20.09 106.92-19.75L106.92-19.75L106.92-19.75Q108.26-19.42 109.51-18.72L109.51-18.72L106.90-13.96L106.90-13.96Q106.63-14.20 106.20-14.55L106.20-14.55L106.20-14.55Q105.77-14.90 104.58-15.46L104.58-15.46L104.58-15.46Q103.39-16.03 102.47-16.03L102.47-16.03L102.47-16.03Q101.56-16.03 101.07-15.62L101.07-15.62L101.07-15.62Q100.58-15.21 100.58-14.49L100.58-14.49L100.58-14.49Q100.58-13.77 101.93-13.05L101.93-13.05L101.93-13.05Q103.27-12.32 104.87-11.72L104.87-11.72L104.87-11.72Q106.47-11.12 107.82-9.73L107.82-9.73L107.82-9.73Q109.16-8.35 109.16-6.43L109.16-6.43L109.16-6.43Q109.16-3.71 106.92-1.64L106.92-1.64L106.92-1.64Q104.68 0.43 101.75 0.43L101.75 0.43L101.75 0.43Q99.88 0.43 98.26-0.39L98.26-0.39L98.26-0.39Q96.64-1.21 95.94-2.03L95.94-2.03L95.24-2.85L98.32-6.43L98.32-6.43Q98.55-6.12 98.98-5.66L98.98-5.66L98.98-5.66Q99.41-5.19 100.68-4.41L100.68-4.41L100.68-4.41Q101.95-3.63 103.12-3.63" fill="#ffffff" stroke="none" stroke-width="none" transform="translate(-94.67001342773438,10.609916280110674)" style="fill: rgb(255, 255, 255);"></path></g><g class="path" style="transform: scale(0.91); transform-origin: 24.295px 0.779917px; animation: 1s linear -0.275s infinite normal forwards running breath-62c94768-18e4-4b9d-8854-5cac7e1d357f;"><path d="M119.61-3.98L119.61-3.98L119.61-3.98Q120.74-3.98 121.99-4.56L121.99-4.56L121.99-4.56Q123.24-5.15 123.94-5.73L123.94-5.73L124.64-6.32L126.44-4.13L126.44-4.13Q126.05-3.47 125.23-2.61L125.23-2.61L125.23-2.61Q124.41-1.75 123.57-1.15L123.57-1.15L123.57-1.15Q122.73-0.55 121.35-0.06L121.35-0.06L121.35-0.06Q119.96 0.43 118.48 0.43L118.48 0.43L118.48 0.43Q115.32 0.43 113.33-1.97L113.33-1.97L113.33-1.97Q111.34-4.37 111.34-8.15L111.34-8.15L111.34-8.15Q111.34-12.91 114.11-16.50L114.11-16.50L114.11-16.50Q116.88-20.09 120.59-20.09L120.59-20.09L120.59-20.09Q123.44-20.09 125.01-18.49L125.01-18.49L125.01-18.49Q126.59-16.89 126.59-14.00L126.59-14.00L126.59-14.00Q126.59-12.29 126.01-10.10L126.01-10.10L125.23-9.28L115.48-8.38L115.48-8.38Q116.14-3.98 119.61-3.98zM119.61-16.07L119.61-16.07L119.61-16.07Q117.90-16.07 116.73-14.68L116.73-14.68L116.73-14.68Q115.56-13.30 115.36-11.15L115.36-11.15L121.99-11.97L121.99-11.97Q122.11-12.87 122.11-13.46L122.11-13.46L122.11-13.46Q122.11-16.07 119.61-16.07" fill="#ffffff" stroke="none" stroke-width="none" transform="translate(-94.67001342773438,10.609916280110674)" style="fill: rgb(255, 255, 255);"></path></g><g class="path" style="transform: scale(0.91); transform-origin: 49.24px -2.84508px; animation: 1s linear -0.22s infinite normal forwards running breath-62c94768-18e4-4b9d-8854-5cac7e1d357f;"><path d="M150.97-26.91L150.54-22.74L142.23-22.74L142.00-15.56L149.45-15.56L149.02-11.43L141.88-11.43L141.84-10.14L142.31 0L136.85 0L137.32-9.48L136.85-26.91L150.97-26.91" fill="#ffffff" stroke="none" stroke-width="none" transform="translate(-94.67001342773438,10.609916280110674)" style="fill: rgb(255, 255, 255);"></path></g><g class="path" style="transform: scale(0.91); transform-origin: 65.35px 0.624917px; animation: 1s linear -0.165s infinite normal forwards running breath-62c94768-18e4-4b9d-8854-5cac7e1d357f;"><path d="M157.13 0L157.13 0Q154.83 0 153.37-1.46L153.37-1.46L153.37-1.46Q151.91-2.92 151.91-5.40L151.91-5.40L151.91-5.40Q151.91-7.88 154.17-9.69L154.17-9.69L154.17-9.69Q156.43-11.51 159.67-11.51L159.67-11.51L162.32-11.51L162.32-12.17L162.32-12.17Q162.32-14.08 161.54-14.78L161.54-14.78L161.54-14.78Q160.76-15.48 158.61-15.48L158.61-15.48L158.61-15.48Q157.72-15.48 156.49-15.11L156.49-15.11L156.49-15.11Q155.26-14.74 153.74-13.96L153.74-13.96L152.61-17.04L152.61-17.04Q154.28-18.21 156.68-19.15L156.68-19.15L156.68-19.15Q159.08-20.09 160.64-20.09L160.64-20.09L160.64-20.09Q166.76-20.09 166.76-14.16L166.76-14.16L166.76-6.51L166.76-6.51Q166.76-4.33 168.13-1.64L168.13-1.64L164.00 0.12L164.00 0.12Q163.02-1.75 162.55-3.24L162.55-3.24L162.55-3.24Q160.41 0 157.13 0L157.13 0zM158.77-3.98L158.77-3.98L158.77-3.98Q160.33-3.98 162.32-5.58L162.32-5.58L162.32-8.19L162.32-8.19Q160.25-8.66 158.96-8.66L158.96-8.66L158.96-8.66Q156.51-8.66 156.51-6.47L156.51-6.47L156.51-6.47Q156.51-5.34 157.13-4.66L157.13-4.66L157.13-4.66Q157.75-3.98 158.77-3.98" fill="#ffffff" stroke="none" stroke-width="none" transform="translate(-94.67001342773438,10.609916280110674)" style="fill: rgb(255, 255, 255);"></path></g><g class="path" style="transform: scale(0.91); transform-origin: 79.445px 0.684916px; animation: 1s linear -0.11s infinite normal forwards running breath-62c94768-18e4-4b9d-8854-5cac7e1d357f;"><path d="M171.52-18.88L176.75-19.85L176.28-10.14L176.71-0.97L171.48 0L171.95-9.48L171.52-18.88" fill="#ffffff" stroke="none" stroke-width="none" transform="translate(-94.67001342773438,10.609916280110674)" style="fill: rgb(255, 255, 255);"></path></g><g class="path" style="transform: scale(0.91); transform-origin: 79.62px -15.1301px; animation: 1s linear -0.055s infinite normal forwards running breath-62c94768-18e4-4b9d-8854-5cac7e1d357f;"><path d="M171.25-25.56L171.25-25.56L171.25-25.56Q171.25-26.87 172.26-27.90L172.26-27.90L172.26-27.90Q173.28-28.94 174.60-28.94L174.60-28.94L174.60-28.94Q175.93-28.94 176.63-28.22L176.63-28.22L176.63-28.22Q177.33-27.50 177.33-26.05L177.33-26.05L177.33-26.05Q177.33-24.61 176.34-23.58L176.34-23.58L176.34-23.58Q175.34-22.54 174.04-22.54L174.04-22.54L174.04-22.54Q172.73-22.54 171.99-23.40L171.99-23.40L171.99-23.40Q171.25-24.26 171.25-25.56" fill="#ffffff" stroke="none" stroke-width="none" transform="translate(-94.67001342773438,10.609916280110674)" style="fill: rgb(255, 255, 255);"></path></g><g class="path" style="transform: scale(0.91); transform-origin: 91.865px 0.684916px; animation: 1s linear 0s infinite normal forwards running breath-62c94768-18e4-4b9d-8854-5cac7e1d357f;"><path d="M180.61-18.84L180.61-18.84L185.33-19.85L185.33-19.85Q185.68-16.85 185.80-14.16L185.80-14.16L185.80-14.16Q189.34-19.66 192.46-19.66L192.46-19.66L192.04-13.57L192.04-13.57Q189.77-13.57 188.47-13.16L188.47-13.16L188.47-13.16Q187.16-12.75 185.80-11.54L185.80-11.54L185.80-10.14L186.22-0.97L181.00 0L181.47-9.48L181.47-9.48Q181.31-14.70 180.61-18.84" fill="#ffffff" stroke="none" stroke-width="none" transform="translate(-94.67001342773438,10.609916280110674)" style="fill: rgb(255, 255, 255);"></path></g></g>
</g>
</g>
<style id="breath-62c94768-18e4-4b9d-8854-5cac7e1d357f" data-anikit="">@keyframes breath-62c94768-18e4-4b9d-8854-5cac7e1d357f
{
  0% {
    animation-timing-function: cubic-bezier(0.9647,0.2413,-0.0705,0.7911);
    transform: scale(0.9099999999999999);
  }
  51% {
    animation-timing-function: cubic-bezier(0.9226,0.2631,-0.0308,0.7628);
    transform: scale(1.02994);
  }
  100% {
    transform: scale(0.9099999999999999);
  }
}</style></svg>