<?xml version="1.0"?>
<svg version="1.1" xmlns="http://www.w3.org/2000/svg" width="184px" height="36px" style=""><path fill="#ffffff" d="M42.632,20.88l0,1.76l-3.232,0l0,3.04l2.864,0l0.368-1.312l1.44,0l0,3.232l-8.352,0l0-1.36l1.2-0.48l0-7.52l-1.2-0.48l0-1.36l3.68-0.08l4.48,0l0,3.088l-1.44,0l-0.4-1.168l-2.64,0l0,2.64l3.232,0z M55.13616,20.32l-0.992,0.208l-1.84,2.752l1.808,2.72l1.184,0.32l0,1.28l-4.352,0l0-1.28l0.496-0.176l-0.848-1.408l-1.728,2.864l-2.72,0l0-1.28l1.2-0.32l1.76-2.64l-1.936-2.832l-0.864-0.208l0-1.28l4.144-0.08l0,1.36l-0.48,0.096l0.832,1.408l1.664-2.784l2.672-0.08l0,1.36z M56.80832,19.04l3.408-0.08l0.144,0.896s1.088-1.056,2.368-1.056c2.224,0,3.328,1.648,3.328,4.24c0,2.96-1.408,4.72-4.208,4.72c-0.464,0-0.944-0.064-1.36-0.16l0,2.032l1.52,0.368l0,1.28l-5.168,0l0-1.28l1.248-0.368l0-8.912l-1.28-0.4l0-1.28z M60.48832,21.6l0,4.08c0.256,0.112,0.64,0.24,1.248,0.24c1.376,0,1.84-0.96,1.84-2.592c0-1.616-0.432-2.608-1.6-2.608c-1.04,0-1.488,0.88-1.488,0.88z M76.17648,23.808l-5.312,0c0.096,1.28,0.832,2.032,1.936,2.032c1.328,0,2.688-0.752,2.688-0.752l0.688,1.328s-1.6,1.344-3.648,1.344c-2.752,0-4.16-1.6-4.16-4.32c0-2.8,1.584-4.64,4.272-4.64c2.384,0,3.632,1.472,3.632,3.76c0,0.608-0.096,1.2-0.096,1.248z M70.89648,22.32l2.896,0c0-0.912-0.384-1.6-1.312-1.6c-0.896,0-1.456,0.656-1.584,1.6z M81.89664,18.96l0.112,1.104s1.52-1.232,2.944-1.232c1.552,0,2.432,1.104,2.432,2.848l0,4.24l1.12,0.4l0,1.28l-4.4,0l0-1.28l0.88-0.4l0-3.808c0-0.736-0.416-1.28-1.088-1.28c-0.992,0-1.712,0.912-1.712,0.912l0,4.176l0.88,0.4l0,1.28l-4.56,0l0-1.28l1.28-0.4l0-5.2l-1.28-0.4l0-1.28z M92.0648,24.8l0.128,1.04s0.56,0.16,1.344,0.16c0.88,0,1.312-0.272,1.312-0.784c0-1.312-4.272-0.832-4.272-3.68c0-2,1.6-2.736,3.296-2.736c1.44,0,2.976,0.48,2.976,0.48l-0.064,2.4l-1.36,0l-0.24-0.96s-0.464-0.16-1.104-0.16c-0.688,0-1.104,0.288-1.104,0.816c0,1.296,4.272,0.736,4.272,3.504c0,1.84-1.488,2.88-3.68,2.88c-1.52,0-2.944-0.352-2.944-0.352l0-2.608l1.44,0z M107.28896,23.808l-5.312,0c0.096,1.28,0.832,2.032,1.936,2.032c1.328,0,2.688-0.752,2.688-0.752l0.688,1.328s-1.6,1.344-3.648,1.344c-2.752,0-4.16-1.6-4.16-4.32c0-2.8,1.584-4.64,4.272-4.64c2.384,0,3.632,1.472,3.632,3.76c0,0.608-0.096,1.2-0.096,1.248z M102.00896,22.32l2.896,0c0-0.912-0.384-1.6-1.312-1.6c-0.896,0-1.456,0.656-1.584,1.6z M114.64928,27.6l0-1.36l1.2-0.48l0-7.52l-1.2-0.48l0-1.36l3.68-0.08l4.48,0l0,3.04l-1.488,0l-0.4-1.12l-2.592,0l0,2.8l3.312,0l0,1.76l-3.312,0l0,2.96l1.472,0.48l0,1.36l-5.152,0z M130.33744,27.6l-0.288-1.04s-1.232,1.2-2.592,1.2c-1.552,0-2.496-0.912-2.496-2.512c0-1.888,1.424-2.64,3.856-2.64l1.12,0l0-0.88c0-0.816-0.432-1.168-1.232-1.168c-0.816,0-1.408,0.24-1.408,0.24l-0.24,1.008l-1.44,0l-0.112-2.368s1.936-0.64,3.472-0.64c2.432,0,3.36,0.848,3.36,3.168l0,3.952l1.2,0.288l0,1.28z M129.93744,23.968l-0.912,0c-1.248,0-1.744,0.32-1.744,1.04c0,0.608,0.336,0.96,0.944,0.96c0.848,0,1.712-0.928,1.712-0.928l0-1.072z M136.6016,16.32c0-0.912,0.656-1.44,1.376-1.44c0.832,0,1.344,0.432,1.344,1.44c0,0.944-0.688,1.456-1.344,1.456c-0.864,0-1.376-0.512-1.376-1.456z M139.2896,25.92l1.12,0.4l0,1.28l-4.8,0l0-1.28l1.28-0.4l0-5.2l-1.28-0.4l0-1.28l3.68-0.08l0,6.96z M145.92176,18.96l0.144,1.104s1.152-1.264,2.224-1.264c0.88,0,1.488,0.288,1.488,0.288l-0.128,3.072l-1.44,0l-0.24-1.36c-0.928,0-1.728,0.896-1.728,0.896l0,4.224l1.6,0.4l0,1.28l-5.28,0l0-1.28l1.28-0.4l0-5.2l-1.28-0.4l0-1.28z"/><path fill="#" d=""/></svg>
