<?xml version="1.0" encoding="utf-8"?>
<svg xmlns="http://www.w3.org/2000/svg" style="margin: auto; background: none; display: block; shape-rendering: auto;" width="246" height="77" preserveAspectRatio="xMidYMid">
<style type="text/css">
  text {
    text-anchor: middle; font-size: 26px; opacity: 0;
  }
</style>
<g style="transform-origin: 123px 38.5px; transform: scale(0.742857);">
<g transform="translate(123,38.5)">
  <g transform="translate(0,0)"><g class="path" style="transform: scale(0.91); transform-origin: -144.325px -1.62021px; animation: 0.925926s linear -0.56746s infinite normal forwards running breath-50de9e30-ce28-4a46-86cb-fefe35eecea7;"><path d="M20.46-3.14L20.46 0L2.79 0L2.79-24.61L20.46-24.61L20.46-21.46L9.57-21.46L9.57-13.86L17.98-13.86L17.98-10.73L9.57-10.73L9.57-3.14L20.46-3.14" fill="#ffffff" stroke="none" stroke-width="none" transform="translate(-155.94998168945312,10.684788033621661)" style="fill: rgb(255, 255, 255);"></path></g><g class="path" style="transform: scale(0.91); transform-origin: -123.995px 0.814788px; animation: 0.925926s linear -0.52381s infinite normal forwards running breath-50de9e30-ce28-4a46-86cb-fefe35eecea7;"><path d="M34.15-10.89L41.73 0L35.96 0L31.12-6.92L26.18 0L22.18 0L29.62-9.09L22.18-19.74L27.96-19.74L32.64-13.04L37.73-19.74L41.73-19.74L34.15-10.89" fill="#ffffff" stroke="none" stroke-width="none" transform="translate(-155.94998168945312,10.684788033621661)" style="fill: rgb(255, 255, 255);"></path></g><g class="path" style="transform: scale(0.91); transform-origin: -101.055px 5.12979px; animation: 0.925926s linear -0.480159s infinite normal forwards running breath-50de9e30-ce28-4a46-86cb-fefe35eecea7;"><path d="M65.39-9.91L65.39-9.91L65.39-9.91Q65.39-7.76 64.74-5.88L64.74-5.88L64.74-5.88Q64.09-4.00 62.86-2.61L62.86-2.61L62.86-2.61Q61.63-1.21 59.85-0.41L59.85-0.41L59.85-0.41Q58.07 0.39 55.82 0.39L55.82 0.39L55.82 0.39Q54.09 0.39 52.65-0.28L52.65-0.28L52.65-0.28Q51.20-0.96 50.18-2.36L50.18-2.36L50.18 9.11L44.40 9.11L44.40-19.74L46.62-19.74L49.18-15.45L49.18-15.45Q49.56-16.53 50.22-17.41L50.22-17.41L50.22-17.41Q50.88-18.29 51.74-18.91L51.74-18.91L51.74-18.91Q52.60-19.53 53.64-19.88L53.64-19.88L53.64-19.88Q54.67-20.22 55.82-20.22L55.82-20.22L55.82-20.22Q58.07-20.22 59.85-19.41L59.85-19.41L59.85-19.41Q61.63-18.61 62.86-17.22L62.86-17.22L62.86-17.22Q64.09-15.83 64.74-13.95L64.74-13.95L64.74-13.95Q65.39-12.07 65.39-9.91zM59.52-9.91L59.52-9.91L59.52-9.91Q59.52-10.66 59.45-11.51L59.45-11.51L59.45-11.51Q59.37-12.36 59.18-13.19L59.18-13.19L59.18-13.19Q58.99-14.03 58.66-14.80L58.66-14.80L58.66-14.80Q58.33-15.57 57.81-16.16L57.81-16.16L57.81-16.16Q57.30-16.75 56.58-17.10L56.58-17.10L56.58-17.10Q55.85-17.45 54.89-17.45L54.89-17.45L54.89-17.45Q53.90-17.45 53.18-17.11L53.18-17.11L53.18-17.11Q52.45-16.77 51.93-16.18L51.93-16.18L51.93-16.18Q51.41-15.59 51.07-14.83L51.07-14.83L51.07-14.83Q50.74-14.06 50.55-13.23L50.55-13.23L50.55-13.23Q50.36-12.39 50.29-11.54L50.29-11.54L50.29-11.54Q50.21-10.68 50.21-9.91L50.21-9.91L50.21-9.91Q50.21-9.23 50.31-8.40L50.31-8.40L50.31-8.40Q50.42-7.57 50.64-6.73L50.64-6.73L50.64-6.73Q50.86-5.90 51.22-5.11L51.22-5.11L51.22-5.11Q51.58-4.32 52.10-3.71L52.10-3.71L52.10-3.71Q52.62-3.09 53.31-2.73L53.31-2.73L53.31-2.73Q54.00-2.36 54.89-2.36L54.89-2.36L54.89-2.36Q55.87-2.36 56.58-2.71L56.58-2.71L56.58-2.71Q57.30-3.06 57.81-3.65L57.81-3.65L57.81-3.65Q58.33-4.24 58.66-5.01L58.66-5.01L58.66-5.01Q58.99-5.78 59.18-6.61L59.18-6.61L59.18-6.61Q59.37-7.45 59.45-8.31L59.45-8.31L59.45-8.31Q59.52-9.16 59.52-9.91" fill="#ffffff" stroke="none" stroke-width="none" transform="translate(-155.94998168945312,10.684788033621661)" style="fill: rgb(255, 255, 255);"></path></g><g class="path" style="transform: scale(0.91); transform-origin: -77.935px 0.769788px; animation: 0.925926s linear -0.436508s infinite normal forwards running breath-50de9e30-ce28-4a46-86cb-fefe35eecea7;"><path d="M73.85-9.37L73.85-9.37L73.85-9.37Q74.90-9.13 75.96-8.99L75.96-8.99L75.96-8.99Q77.02-8.85 78.10-8.85L78.10-8.85L78.10-8.85Q79.23-8.85 80.19-9.07L80.19-9.07L80.19-9.07Q81.16-9.28 81.87-9.78L81.87-9.78L81.87-9.78Q82.58-10.29 82.99-11.13L82.99-11.13L82.99-11.13Q83.40-11.96 83.40-13.21L83.40-13.21L83.40-13.21Q83.40-14.22 83.13-15.06L83.13-15.06L83.13-15.06Q82.85-15.89 82.31-16.49L82.31-16.49L82.31-16.49Q81.77-17.09 80.99-17.42L80.99-17.42L80.99-17.42Q80.20-17.76 79.16-17.76L79.16-17.76L79.16-17.76Q78.19-17.76 77.41-17.40L77.41-17.40L77.41-17.40Q76.63-17.04 76.04-16.43L76.04-16.43L76.04-16.43Q75.45-15.83 75.03-15.02L75.03-15.02L75.03-15.02Q74.61-14.22 74.34-13.35L74.34-13.35L74.34-13.35Q74.07-12.48 73.95-11.59L73.95-11.59L73.95-11.59Q73.83-10.70 73.83-9.91L73.83-9.91L73.83-9.91Q73.83-9.78 73.83-9.64L73.83-9.64L73.83-9.64Q73.83-9.50 73.85-9.37zM88.08-13.26L88.08-13.26L88.08-13.26Q88.08-12.05 87.69-11.10L87.69-11.10L87.69-11.10Q87.29-10.15 86.62-9.43L86.62-9.43L86.62-9.43Q85.94-8.72 85.06-8.22L85.06-8.22L85.06-8.22Q84.17-7.72 83.16-7.41L83.16-7.41L83.16-7.41Q82.15-7.09 81.08-6.96L81.08-6.96L81.08-6.96Q80.01-6.82 79.01-6.82L79.01-6.82L79.01-6.82Q77.72-6.82 76.48-7.00L76.48-7.00L76.48-7.00Q75.23-7.18 74.02-7.57L74.02-7.57L74.02-7.57Q74.20-6.44 74.61-5.43L74.61-5.43L74.61-5.43Q75.02-4.41 75.71-3.65L75.71-3.65L75.71-3.65Q76.39-2.89 77.39-2.44L77.39-2.44L77.39-2.44Q78.39-2.00 79.76-2.00L79.76-2.00L79.76-2.00Q80.66-2.00 81.48-2.27L81.48-2.27L81.48-2.27Q82.30-2.55 82.99-3.04L82.99-3.04L82.99-3.04Q83.67-3.54 84.19-4.22L84.19-4.22L84.19-4.22Q84.71-4.90 85.04-5.74L85.04-5.74L87.53-4.82L87.53-4.82Q86.97-3.47 85.99-2.49L85.99-2.49L85.99-2.49Q85.00-1.50 83.77-0.86L83.77-0.86L83.77-0.86Q82.53-0.22 81.13 0.09L81.13 0.09L81.13 0.09Q79.74 0.39 78.37 0.39L78.37 0.39L78.37 0.39Q76.12 0.39 74.20-0.37L74.20-0.37L74.20-0.37Q72.29-1.13 70.91-2.50L70.91-2.50L70.91-2.50Q69.52-3.86 68.74-5.76L68.74-5.76L68.74-5.76Q67.95-7.66 67.95-9.91L67.95-9.91L67.95-9.91Q67.95-12.17 68.74-14.06L68.74-14.06L68.74-14.06Q69.52-15.96 70.91-17.33L70.91-17.33L70.91-17.33Q72.29-18.70 74.20-19.46L74.20-19.46L74.20-19.46Q76.12-20.22 78.37-20.22L78.37-20.22L78.37-20.22Q79.47-20.22 80.61-20.06L80.61-20.06L80.61-20.06Q81.76-19.91 82.83-19.58L82.83-19.58L82.83-19.58Q83.91-19.24 84.87-18.71L84.87-18.71L84.87-18.71Q85.83-18.18 86.53-17.41L86.53-17.41L86.53-17.41Q87.24-16.63 87.66-15.60L87.66-15.60L87.66-15.60Q88.08-14.58 88.08-13.26" fill="#ffffff" stroke="none" stroke-width="none" transform="translate(-155.94998168945312,10.684788033621661)" style="fill: rgb(255, 255, 255);"></path></g><g class="path" style="transform: scale(0.91); transform-origin: -54.17px 2.67479px; animation: 0.925926s linear -0.392857s infinite normal forwards running breath-50de9e30-ce28-4a46-86cb-fefe35eecea7;"><path d="M111.87-11.31L111.87-11.31L111.87-11.31Q111.87-9.31 111.38-7.14L111.38-7.14L111.38-7.14Q110.90-4.97 110.02-2.89L110.02-2.89L110.02-2.89Q109.15-0.80 107.94 1.03L107.94 1.03L107.94 1.03Q106.73 2.87 105.27 4.20L105.27 4.20L103.10 3.02L103.10 3.02Q103.56 2.17 103.97 1.11L103.97 1.11L103.97 1.11Q104.38 0.05 104.72-1.14L104.72-1.14L104.72-1.14Q105.05-2.32 105.32-3.59L105.32-3.59L105.32-3.59Q105.58-4.85 105.76-6.09L105.76-6.09L105.76-6.09Q105.94-7.33 106.03-8.50L106.03-8.50L106.03-8.50Q106.13-9.67 106.13-10.68L106.13-10.68L106.13-10.68Q106.13-11.35 106.08-12.11L106.08-12.11L106.08-12.11Q106.03-12.87 105.86-13.63L105.86-13.63L105.86-13.63Q105.70-14.39 105.43-15.09L105.43-15.09L105.43-15.09Q105.15-15.79 104.70-16.32L104.70-16.32L104.70-16.32Q104.25-16.85 103.61-17.18L103.61-17.18L103.61-17.18Q102.97-17.50 102.09-17.50L102.09-17.50L102.09-17.50Q101.24-17.50 100.57-17.12L100.57-17.12L100.57-17.12Q99.91-16.73 99.39-16.11L99.39-16.11L99.39-16.11Q98.88-15.48 98.51-14.68L98.51-14.68L98.51-14.68Q98.15-13.88 97.92-13.03L97.92-13.03L97.92-13.03Q97.69-12.19 97.58-11.36L97.58-11.36L97.58-11.36Q97.48-10.54 97.48-9.90L97.48-9.90L97.48 0L91.69 0L91.69-19.74L93.91-19.74L96.56-15.14L96.56-15.14Q97.04-16.29 97.75-17.23L97.75-17.23L97.75-17.23Q98.47-18.17 99.38-18.83L99.38-18.83L99.38-18.83Q100.28-19.50 101.39-19.86L101.39-19.86L101.39-19.86Q102.49-20.22 103.77-20.22L103.77-20.22L103.77-20.22Q105.82-20.22 107.34-19.55L107.34-19.55L107.34-19.55Q108.86-18.88 109.87-17.70L109.87-17.70L109.87-17.70Q110.88-16.51 111.37-14.88L111.37-14.88L111.37-14.88Q111.87-13.24 111.87-11.31" fill="#ffffff" stroke="none" stroke-width="none" transform="translate(-155.94998168945312,10.684788033621661)" style="fill: rgb(255, 255, 255);"></path></g><g class="path" style="transform: scale(0.91); transform-origin: -32.4px 0.769788px; animation: 0.925926s linear -0.349206s infinite normal forwards running breath-50de9e30-ce28-4a46-86cb-fefe35eecea7;"><path d="M132.67-6.31L132.67-6.31L132.67-6.31Q132.67-5.01 132.29-4.00L132.29-4.00L132.29-4.00Q131.92-2.99 131.27-2.25L131.27-2.25L131.27-2.25Q130.62-1.50 129.73-1.00L129.73-1.00L129.73-1.00Q128.84-0.50 127.82-0.19L127.82-0.19L127.82-0.19Q126.81 0.12 125.70 0.26L125.70 0.26L125.70 0.26Q124.58 0.39 123.49 0.39L123.49 0.39L123.49 0.39Q122.02 0.39 120.89 0.21L120.89 0.21L120.89 0.21Q119.77 0.02 118.74-0.40L118.74-0.40L118.74-0.40Q117.71-0.82 116.70-1.49L116.70-1.49L116.70-1.49Q115.68-2.15 114.43-3.11L114.43-3.11L117.80-5.86L117.80-5.86Q118.26-4.99 119.02-4.28L119.02-4.28L119.02-4.28Q119.78-3.57 120.60-3.06L120.60-3.06L120.60-3.06Q121.42-2.55 122.19-2.27L122.19-2.27L122.19-2.27Q122.96-2.00 123.44-2.00L123.44-2.00L123.44-2.00Q123.83-2.00 124.33-2.03L124.33-2.03L124.33-2.03Q124.82-2.05 125.34-2.13L125.34-2.13L125.34-2.13Q125.85-2.20 126.35-2.36L126.35-2.36L126.35-2.36Q126.84-2.51 127.23-2.78L127.23-2.78L127.23-2.78Q127.61-3.04 127.84-3.44L127.84-3.44L127.84-3.44Q128.07-3.85 128.07-4.41L128.07-4.41L128.07-4.41Q128.07-4.99 127.77-5.43L127.77-5.43L127.77-5.43Q127.47-5.86 126.99-6.19L126.99-6.19L126.99-6.19Q126.52-6.51 125.90-6.73L125.90-6.73L125.90-6.73Q125.29-6.96 124.66-7.13L124.66-7.13L124.66-7.13Q124.04-7.30 123.46-7.43L123.46-7.43L123.46-7.43Q122.88-7.55 122.45-7.67L122.45-7.67L122.45-7.67Q121.66-7.90 120.79-8.13L120.79-8.13L120.79-8.13Q119.92-8.36 119.06-8.66L119.06-8.66L119.06-8.66Q118.21-8.96 117.43-9.37L117.43-9.37L117.43-9.37Q116.66-9.78 116.07-10.35L116.07-10.35L116.07-10.35Q115.48-10.92 115.13-11.70L115.13-11.70L115.13-11.70Q114.78-12.48 114.78-13.52L114.78-13.52L114.78-13.52Q114.78-15.43 115.54-16.72L115.54-16.72L115.54-16.72Q116.30-18.01 117.54-18.79L117.54-18.79L117.54-18.79Q118.79-19.57 120.38-19.89L120.38-19.89L120.38-19.89Q121.97-20.22 123.61-20.22L123.61-20.22L123.61-20.22Q124.74-20.22 125.99-19.99L125.99-19.99L125.99-19.99Q127.23-19.76 128.41-19.30L128.41-19.30L128.41-19.30Q129.59-18.85 130.62-18.20L130.62-18.20L130.62-18.20Q131.64-17.55 132.33-16.71L132.33-16.71L128.96-13.95L128.96-13.95Q128.58-14.97 127.98-15.71L127.98-15.71L127.98-15.71Q127.37-16.44 126.66-16.91L126.66-16.91L126.66-16.91Q125.95-17.38 125.21-17.60L125.21-17.60L125.21-17.60Q124.47-17.82 123.83-17.82L123.83-17.82L123.83-17.82Q123.22-17.82 122.45-17.77L122.45-17.77L122.45-17.77Q121.68-17.72 121.00-17.48L121.00-17.48L121.00-17.48Q120.33-17.24 119.86-16.76L119.86-16.76L119.86-16.76Q119.39-16.27 119.39-15.42L119.39-15.42L119.39-15.42Q119.39-14.80 119.67-14.36L119.67-14.36L119.67-14.36Q119.95-13.93 120.42-13.61L120.42-13.61L120.42-13.61Q120.88-13.30 121.47-13.08L121.47-13.08L121.47-13.08Q122.06-12.87 122.67-12.71L122.67-12.71L122.67-12.71Q123.29-12.54 123.87-12.42L123.87-12.42L123.87-12.42Q124.45-12.30 124.91-12.17L124.91-12.17L124.91-12.17Q125.70-11.95 126.58-11.72L126.58-11.72L126.58-11.72Q127.46-11.48 128.31-11.19L128.31-11.19L128.31-11.19Q129.17-10.89 129.96-10.48L129.96-10.48L129.96-10.48Q130.75-10.08 131.35-9.50L131.35-9.50L131.35-9.50Q131.95-8.92 132.31-8.14L132.31-8.14L132.31-8.14Q132.67-7.37 132.67-6.31" fill="#ffffff" stroke="none" stroke-width="none" transform="translate(-155.94998168945312,10.684788033621661)" style="fill: rgb(255, 255, 255);"></path></g><g class="path" style="transform: scale(0.91); transform-origin: -10.72px 0.769788px; animation: 0.925926s linear -0.305556s infinite normal forwards running breath-50de9e30-ce28-4a46-86cb-fefe35eecea7;"><path d="M141.06-9.37L141.06-9.37L141.06-9.37Q142.12-9.13 143.18-8.99L143.18-8.99L143.18-8.99Q144.24-8.85 145.31-8.85L145.31-8.85L145.31-8.85Q146.44-8.85 147.41-9.07L147.41-9.07L147.41-9.07Q148.37-9.28 149.08-9.78L149.08-9.78L149.08-9.78Q149.79-10.29 150.20-11.13L150.20-11.13L150.20-11.13Q150.61-11.96 150.61-13.21L150.61-13.21L150.61-13.21Q150.61-14.22 150.34-15.06L150.34-15.06L150.34-15.06Q150.07-15.89 149.53-16.49L149.53-16.49L149.53-16.49Q148.99-17.09 148.20-17.42L148.20-17.42L148.20-17.42Q147.42-17.76 146.37-17.76L146.37-17.76L146.37-17.76Q145.40-17.76 144.62-17.40L144.62-17.40L144.62-17.40Q143.85-17.04 143.26-16.43L143.26-16.43L143.26-16.43Q142.67-15.83 142.25-15.02L142.25-15.02L142.25-15.02Q141.83-14.22 141.56-13.35L141.56-13.35L141.56-13.35Q141.28-12.48 141.16-11.59L141.16-11.59L141.16-11.59Q141.04-10.70 141.04-9.91L141.04-9.91L141.04-9.91Q141.04-9.78 141.04-9.64L141.04-9.64L141.04-9.64Q141.04-9.50 141.06-9.37zM155.30-13.26L155.30-13.26L155.30-13.26Q155.30-12.05 154.90-11.10L154.90-11.10L154.90-11.10Q154.51-10.15 153.83-9.43L153.83-9.43L153.83-9.43Q153.16-8.72 152.27-8.22L152.27-8.22L152.27-8.22Q151.38-7.72 150.37-7.41L150.37-7.41L150.37-7.41Q149.37-7.09 148.30-6.96L148.30-6.96L148.30-6.96Q147.23-6.82 146.22-6.82L146.22-6.82L146.22-6.82Q144.94-6.82 143.69-7.00L143.69-7.00L143.69-7.00Q142.44-7.18 141.23-7.57L141.23-7.57L141.23-7.57Q141.42-6.44 141.83-5.43L141.83-5.43L141.83-5.43Q142.24-4.41 142.92-3.65L142.92-3.65L142.92-3.65Q143.61-2.89 144.61-2.44L144.61-2.44L144.61-2.44Q145.61-2.00 146.97-2.00L146.97-2.00L146.97-2.00Q147.88-2.00 148.70-2.27L148.70-2.27L148.70-2.27Q149.52-2.55 150.20-3.04L150.20-3.04L150.20-3.04Q150.89-3.54 151.41-4.22L151.41-4.22L151.41-4.22Q151.93-4.90 152.25-5.74L152.25-5.74L154.75-4.82L154.75-4.82Q154.18-3.47 153.20-2.49L153.20-2.49L153.20-2.49Q152.22-1.50 150.98-0.86L150.98-0.86L150.98-0.86Q149.74-0.22 148.35 0.09L148.35 0.09L148.35 0.09Q146.96 0.39 145.59 0.39L145.59 0.39L145.59 0.39Q143.33 0.39 141.42-0.37L141.42-0.37L141.42-0.37Q139.50-1.13 138.12-2.50L138.12-2.50L138.12-2.50Q136.74-3.86 135.95-5.76L135.95-5.76L135.95-5.76Q135.16-7.66 135.16-9.91L135.16-9.91L135.16-9.91Q135.16-12.17 135.95-14.06L135.95-14.06L135.95-14.06Q136.74-15.96 138.12-17.33L138.12-17.33L138.12-17.33Q139.50-18.70 141.42-19.46L141.42-19.46L141.42-19.46Q143.33-20.22 145.59-20.22L145.59-20.22L145.59-20.22Q146.68-20.22 147.83-20.06L147.83-20.06L147.83-20.06Q148.97-19.91 150.05-19.58L150.05-19.58L150.05-19.58Q151.13-19.24 152.08-18.71L152.08-18.71L152.08-18.71Q153.04-18.18 153.75-17.41L153.75-17.41L153.75-17.41Q154.46-16.63 154.88-15.60L154.88-15.60L154.88-15.60Q155.30-14.58 155.30-13.26" fill="#ffffff" stroke="none" stroke-width="none" transform="translate(-155.94998168945312,10.684788033621661)" style="fill: rgb(255, 255, 255);"></path></g><g class="path" style="transform: scale(0.91); transform-origin: 21.23px -1.62021px; animation: 0.925926s linear -0.261905s infinite normal forwards running breath-50de9e30-ce28-4a46-86cb-fefe35eecea7;"><path d="M180.57-21.46L180.57 0L173.79 0L173.79-21.46L167.09-21.46L167.09-24.61L187.27-24.61L187.27-21.46L180.57-21.46" fill="#ffffff" stroke="none" stroke-width="none" transform="translate(-155.94998168945312,10.684788033621661)" style="fill: rgb(255, 255, 255);"></path></g><g class="path" style="transform: scale(0.91); transform-origin: 41.06px 0.574788px; animation: 0.925926s linear -0.218254s infinite normal forwards running breath-50de9e30-ce28-4a46-86cb-fefe35eecea7;"><path d="M205.40-18.00L205.40-18.00L202.16-12.61L202.16-12.61Q201.95-13.30 201.63-14.15L201.63-14.15L201.63-14.15Q201.30-15.00 200.82-15.75L200.82-15.75L200.82-15.75Q200.34-16.49 199.68-17.00L199.68-17.00L199.68-17.00Q199.01-17.50 198.14-17.50L198.14-17.50L198.14-17.50Q197.34-17.50 196.75-17.09L196.75-17.09L196.75-17.09Q196.16-16.68 195.75-16.02L195.75-16.02L195.75-16.02Q195.34-15.36 195.07-14.53L195.07-14.53L195.07-14.53Q194.81-13.71 194.66-12.86L194.66-12.86L194.66-12.86Q194.52-12.01 194.47-11.24L194.47-11.24L194.47-11.24Q194.41-10.46 194.41-9.90L194.41-9.90L194.41 0L188.62 0L188.62-19.74L190.84-19.74L193.18-15.14L193.18-15.14Q193.66-16.25 194.28-17.18L194.28-17.18L194.28-17.18Q194.89-18.12 195.70-18.79L195.70-18.79L195.70-18.79Q196.50-19.47 197.52-19.84L197.52-19.84L197.52-19.84Q198.53-20.22 199.81-20.22L199.81-20.22L199.81-20.22Q200.48-20.22 201.30-20.11L201.30-20.11L201.30-20.11Q202.12-20.00 202.91-19.73L202.91-19.73L202.91-19.73Q203.69-19.47 204.36-19.04L204.36-19.04L204.36-19.04Q205.03-18.61 205.40-18.00" fill="#ffffff" stroke="none" stroke-width="none" transform="translate(-155.94998168945312,10.684788033621661)" style="fill: rgb(255, 255, 255);"></path></g><g class="path" style="transform: scale(0.91); transform-origin: 60.85px 0.769788px; animation: 0.925926s linear -0.174603s infinite normal forwards running breath-50de9e30-ce28-4a46-86cb-fefe35eecea7;"><path d="M227.29-19.74L227.29 0L221.52 0L221.52-2.36L221.52-2.36Q220.49-0.96 219.05-0.28L219.05-0.28L219.05-0.28Q217.60 0.39 215.88 0.39L215.88 0.39L215.88 0.39Q213.62 0.39 211.85-0.41L211.85-0.41L211.85-0.41Q210.07-1.21 208.84-2.61L208.84-2.61L208.84-2.61Q207.61-4.00 206.96-5.88L206.96-5.88L206.96-5.88Q206.31-7.76 206.31-9.91L206.31-9.91L206.31-9.91Q206.31-12.07 206.96-13.95L206.96-13.95L206.96-13.95Q207.61-15.83 208.84-17.22L208.84-17.22L208.84-17.22Q210.07-18.61 211.85-19.41L211.85-19.41L211.85-19.41Q213.62-20.22 215.88-20.22L215.88-20.22L215.88-20.22Q217.02-20.22 218.06-19.88L218.06-19.88L218.06-19.88Q219.09-19.53 219.95-18.91L219.95-18.91L219.95-18.91Q220.82-18.29 221.48-17.41L221.48-17.41L221.48-17.41Q222.13-16.53 222.51-15.45L222.51-15.45L225.07-19.74L227.29-19.74zM221.48-9.91L221.48-9.91L221.48-9.91Q221.48-10.68 221.41-11.54L221.41-11.54L221.41-11.54Q221.33-12.39 221.14-13.23L221.14-13.23L221.14-13.23Q220.95-14.06 220.62-14.83L220.62-14.83L220.62-14.83Q220.29-15.59 219.77-16.18L219.77-16.18L219.77-16.18Q219.25-16.77 218.51-17.11L218.51-17.11L218.51-17.11Q217.78-17.45 216.80-17.45L216.80-17.45L216.80-17.45Q215.83-17.45 215.11-17.10L215.11-17.10L215.11-17.10Q214.39-16.75 213.88-16.16L213.88-16.16L213.88-16.16Q213.37-15.57 213.03-14.80L213.03-14.80L213.03-14.80Q212.70-14.03 212.51-13.19L212.51-13.19L212.51-13.19Q212.32-12.36 212.25-11.51L212.25-11.51L212.25-11.51Q212.17-10.66 212.17-9.91L212.17-9.91L212.17-9.91Q212.17-9.16 212.25-8.31L212.25-8.31L212.25-8.31Q212.32-7.45 212.51-6.61L212.51-6.61L212.51-6.61Q212.70-5.78 213.03-5.01L213.03-5.01L213.03-5.01Q213.37-4.24 213.88-3.65L213.88-3.65L213.88-3.65Q214.39-3.06 215.11-2.71L215.11-2.71L215.11-2.71Q215.83-2.36 216.80-2.36L216.80-2.36L216.80-2.36Q217.69-2.36 218.38-2.73L218.38-2.73L218.38-2.73Q219.07-3.09 219.60-3.71L219.60-3.71L219.60-3.71Q220.12-4.32 220.48-5.11L220.48-5.11L220.48-5.11Q220.83-5.90 221.06-6.73L221.06-6.73L221.06-6.73Q221.28-7.57 221.38-8.40L221.38-8.40L221.38-8.40Q221.48-9.23 221.48-9.91" fill="#ffffff" stroke="none" stroke-width="none" transform="translate(-155.94998168945312,10.684788033621661)" style="fill: rgb(255, 255, 255);"></path></g><g class="path" style="transform: scale(0.91); transform-origin: 84.7px 0.769788px; animation: 0.925926s linear -0.130952s infinite normal forwards running breath-50de9e30-ce28-4a46-86cb-fefe35eecea7;"><path d="M250.33-14.85L250.33-14.85L247.84-13.86L247.84-13.86Q247.24-15.74 245.84-16.75L245.84-16.75L245.84-16.75Q244.44-17.76 242.47-17.76L242.47-17.76L242.47-17.76Q241.41-17.76 240.58-17.42L240.58-17.42L240.58-17.42Q239.75-17.09 239.13-16.51L239.13-16.51L239.13-16.51Q238.51-15.93 238.07-15.16L238.07-15.16L238.07-15.16Q237.63-14.39 237.36-13.52L237.36-13.52L237.36-13.52Q237.09-12.65 236.97-11.72L236.97-11.72L236.97-11.72Q236.85-10.78 236.85-9.91L236.85-9.91L236.85-9.91Q236.85-8.97 236.95-8.02L236.95-8.02L236.95-8.02Q237.05-7.06 237.30-6.18L237.30-6.18L237.30-6.18Q237.55-5.30 237.96-4.54L237.96-4.54L237.96-4.54Q238.37-3.78 238.99-3.21L238.99-3.21L238.99-3.21Q239.62-2.65 240.48-2.32L240.48-2.32L240.48-2.32Q241.34-2.00 242.47-2.00L242.47-2.00L242.47-2.00Q243.38-2.00 244.20-2.27L244.20-2.27L244.20-2.27Q245.02-2.55 245.70-3.04L245.70-3.04L245.70-3.04Q246.38-3.54 246.91-4.22L246.91-4.22L246.91-4.22Q247.44-4.90 247.75-5.74L247.75-5.74L250.26-4.82L250.26-4.82Q249.70-3.47 248.77-2.49L248.77-2.49L248.77-2.49Q247.84-1.50 246.66-0.86L246.66-0.86L246.66-0.86Q245.48-0.22 244.13 0.09L244.13 0.09L244.13 0.09Q242.78 0.39 241.39 0.39L241.39 0.39L241.39 0.39Q239.16 0.39 237.24-0.37L237.24-0.37L237.24-0.37Q235.33-1.13 233.93-2.50L233.93-2.50L233.93-2.50Q232.54-3.88 231.76-5.77L231.76-5.77L231.76-5.77Q230.97-7.66 230.97-9.91L230.97-9.91L230.97-9.91Q230.97-12.19 231.75-14.08L231.75-14.08L231.75-14.08Q232.52-15.98 233.91-17.35L233.91-17.35L233.91-17.35Q235.29-18.71 237.21-19.47L237.21-19.47L237.21-19.47Q239.12-20.22 241.39-20.22L241.39-20.22L241.39-20.22Q242.83-20.22 244.20-19.90L244.20-19.90L244.20-19.90Q245.56-19.58 246.73-18.93L246.73-18.93L246.73-18.93Q247.91-18.27 248.84-17.26L248.84-17.26L248.84-17.26Q249.77-16.25 250.33-14.85" fill="#ffffff" stroke="none" stroke-width="none" transform="translate(-155.94998168945312,10.684788033621661)" style="fill: rgb(255, 255, 255);"></path></g><g class="path" style="transform: scale(0.91); transform-origin: 107.49px -2.81521px; animation: 0.925926s linear -0.0873016s infinite normal forwards running breath-50de9e30-ce28-4a46-86cb-fefe35eecea7;"><path d="M259.53-6.63L259.53 0L253.75 0L253.75-27.00L259.53-27.00L259.53-9.28L259.53-9.28Q260.94-10.31 262.32-11.54L262.32-11.54L262.32-11.54Q263.70-12.77 264.94-14.12L264.94-14.12L264.94-14.12Q266.19-15.48 267.26-16.90L267.26-16.90L267.26-16.90Q268.33-18.32 269.13-19.74L269.13-19.74L273.06-19.74L273.06-19.74Q271.87-17.72 270.22-15.71L270.22-15.71L270.22-15.71Q268.58-13.71 266.65-11.88L266.65-11.88L273.13 0L266.76 0L262.16-8.24L262.16-8.24Q260.88-7.37 259.53-6.63L259.53-6.63" fill="#ffffff" stroke="none" stroke-width="none" transform="translate(-155.94998168945312,10.684788033621661)" style="fill: rgb(255, 255, 255);"></path></g><g class="path" style="transform: scale(0.91); transform-origin: 128.285px 0.769788px; animation: 0.925926s linear -0.0436508s infinite normal forwards running breath-50de9e30-ce28-4a46-86cb-fefe35eecea7;"><path d="M280.07-9.37L280.07-9.37L280.07-9.37Q281.13-9.13 282.19-8.99L282.19-8.99L282.19-8.99Q283.25-8.85 284.32-8.85L284.32-8.85L284.32-8.85Q285.45-8.85 286.42-9.07L286.42-9.07L286.42-9.07Q287.38-9.28 288.09-9.78L288.09-9.78L288.09-9.78Q288.80-10.29 289.21-11.13L289.21-11.13L289.21-11.13Q289.62-11.96 289.62-13.21L289.62-13.21L289.62-13.21Q289.62-14.22 289.35-15.06L289.35-15.06L289.35-15.06Q289.07-15.89 288.54-16.49L288.54-16.49L288.54-16.49Q288.00-17.09 287.21-17.42L287.21-17.42L287.21-17.42Q286.43-17.76 285.38-17.76L285.38-17.76L285.38-17.76Q284.41-17.76 283.63-17.40L283.63-17.40L283.63-17.40Q282.85-17.04 282.26-16.43L282.26-16.43L282.26-16.43Q281.67-15.83 281.26-15.02L281.26-15.02L281.26-15.02Q280.84-14.22 280.56-13.35L280.56-13.35L280.56-13.35Q280.29-12.48 280.17-11.59L280.17-11.59L280.17-11.59Q280.05-10.70 280.05-9.91L280.05-9.91L280.05-9.91Q280.05-9.78 280.05-9.64L280.05-9.64L280.05-9.64Q280.05-9.50 280.07-9.37zM294.30-13.26L294.30-13.26L294.30-13.26Q294.30-12.05 293.91-11.10L293.91-11.10L293.91-11.10Q293.52-10.15 292.84-9.43L292.84-9.43L292.84-9.43Q292.17-8.72 291.28-8.22L291.28-8.22L291.28-8.22Q290.39-7.72 289.38-7.41L289.38-7.41L289.38-7.41Q288.37-7.09 287.31-6.96L287.31-6.96L287.31-6.96Q286.24-6.82 285.23-6.82L285.23-6.82L285.23-6.82Q283.95-6.82 282.70-7.00L282.70-7.00L282.70-7.00Q281.45-7.18 280.24-7.57L280.24-7.57L280.24-7.57Q280.43-6.44 280.84-5.43L280.84-5.43L280.84-5.43Q281.25-4.41 281.93-3.65L281.93-3.65L281.93-3.65Q282.61-2.89 283.61-2.44L283.61-2.44L283.61-2.44Q284.61-2.00 285.98-2.00L285.98-2.00L285.98-2.00Q286.89-2.00 287.71-2.27L287.71-2.27L287.71-2.27Q288.53-2.55 289.21-3.04L289.21-3.04L289.21-3.04Q289.90-3.54 290.42-4.22L290.42-4.22L290.42-4.22Q290.94-4.90 291.26-5.74L291.26-5.74L293.76-4.82L293.76-4.82Q293.19-3.47 292.21-2.49L292.21-2.49L292.21-2.49Q291.23-1.50 289.99-0.86L289.99-0.86L289.99-0.86Q288.75-0.22 287.36 0.09L287.36 0.09L287.36 0.09Q285.96 0.39 284.60 0.39L284.60 0.39L284.60 0.39Q282.34 0.39 280.43-0.37L280.43-0.37L280.43-0.37Q278.51-1.13 277.13-2.50L277.13-2.50L277.13-2.50Q275.74-3.86 274.96-5.76L274.96-5.76L274.96-5.76Q274.17-7.66 274.17-9.91L274.17-9.91L274.17-9.91Q274.17-12.17 274.96-14.06L274.96-14.06L274.96-14.06Q275.74-15.96 277.13-17.33L277.13-17.33L277.13-17.33Q278.51-18.70 280.43-19.46L280.43-19.46L280.43-19.46Q282.34-20.22 284.60-20.22L284.60-20.22L284.60-20.22Q285.69-20.22 286.84-20.06L286.84-20.06L286.84-20.06Q287.98-19.91 289.06-19.58L289.06-19.58L289.06-19.58Q290.13-19.24 291.09-18.71L291.09-18.71L291.09-18.71Q292.05-18.18 292.76-17.41L292.76-17.41L292.76-17.41Q293.47-16.63 293.89-15.60L293.89-15.60L293.89-15.60Q294.30-14.58 294.30-13.26" fill="#ffffff" stroke="none" stroke-width="none" transform="translate(-155.94998168945312,10.684788033621661)" style="fill: rgb(255, 255, 255);"></path></g><g class="path" style="transform: scale(0.91); transform-origin: 150.35px 0.574788px; animation: 0.925926s linear 0s infinite normal forwards running breath-50de9e30-ce28-4a46-86cb-fefe35eecea7;"><path d="M314.69-18.00L314.69-18.00L311.45-12.61L311.45-12.61Q311.24-13.30 310.92-14.15L310.92-14.15L310.92-14.15Q310.59-15.00 310.11-15.75L310.11-15.75L310.11-15.75Q309.63-16.49 308.97-17.00L308.97-17.00L308.97-17.00Q308.30-17.50 307.43-17.50L307.43-17.50L307.43-17.50Q306.63-17.50 306.04-17.09L306.04-17.09L306.04-17.09Q305.45-16.68 305.04-16.02L305.04-16.02L305.04-16.02Q304.63-15.36 304.36-14.53L304.36-14.53L304.36-14.53Q304.10-13.71 303.95-12.86L303.95-12.86L303.95-12.86Q303.81-12.01 303.75-11.24L303.75-11.24L303.75-11.24Q303.70-10.46 303.70-9.90L303.70-9.90L303.70 0L297.91 0L297.91-19.74L300.13-19.74L302.47-15.14L302.47-15.14Q302.95-16.25 303.57-17.18L303.57-17.18L303.57-17.18Q304.18-18.12 304.99-18.79L304.99-18.79L304.99-18.79Q305.79-19.47 306.81-19.84L306.81-19.84L306.81-19.84Q307.82-20.22 309.10-20.22L309.10-20.22L309.10-20.22Q309.77-20.22 310.59-20.11L310.59-20.11L310.59-20.11Q311.41-20.00 312.20-19.73L312.20-19.73L312.20-19.73Q312.98-19.47 313.65-19.04L313.65-19.04L313.65-19.04Q314.32-18.61 314.69-18.00" fill="#ffffff" stroke="none" stroke-width="none" transform="translate(-155.94998168945312,10.684788033621661)" style="fill: rgb(255, 255, 255);"></path></g></g>
</g>
</g>
<style id="breath-50de9e30-ce28-4a46-86cb-fefe35eecea7" data-anikit="">@keyframes breath-50de9e30-ce28-4a46-86cb-fefe35eecea7
{
  0% {
    animation-timing-function: cubic-bezier(0.9647,0.2413,-0.0705,0.7911);
    transform: scale(0.9099999999999999);
  }
  51% {
    animation-timing-function: cubic-bezier(0.9226,0.2631,-0.0308,0.7628);
    transform: scale(1.02994);
  }
  100% {
    transform: scale(0.9099999999999999);
  }
}</style></svg>